<mxfile host="app.diagrams.net" modified="2023-11-27T13:21:51.999Z" agent="Mozilla/5.0 (Macintosh; Intel Mac OS X 10_15_7) AppleWebKit/537.36 (KHTML, like Gecko) Chrome/116.0.0.0 Safari/537.36" etag="fPr_DF5ghs8t-st-2H2_" version="22.1.4" type="github">
  <diagram name="Page-1" id="HkoMkaT9kOu1wSa1yFLY">
    <mxGraphModel dx="1242" dy="822" grid="1" gridSize="10" guides="1" tooltips="1" connect="1" arrows="1" fold="1" page="1" pageScale="1" pageWidth="850" pageHeight="1100" math="0" shadow="0">
      <root>
        <mxCell id="0" />
        <mxCell id="1" parent="0" />
        <mxCell id="r0Ud5odVpVDxRnCUqQcT-1" value="" style="whiteSpace=wrap;html=1;aspect=fixed;" vertex="1" parent="1">
          <mxGeometry x="20" y="30" width="400" height="400" as="geometry" />
        </mxCell>
        <mxCell id="r0Ud5odVpVDxRnCUqQcT-2" value="" style="whiteSpace=wrap;html=1;aspect=fixed;" vertex="1" parent="1">
          <mxGeometry x="600" y="30" width="400" height="400" as="geometry" />
        </mxCell>
        <mxCell id="r0Ud5odVpVDxRnCUqQcT-3" value="" style="whiteSpace=wrap;html=1;aspect=fixed;" vertex="1" parent="1">
          <mxGeometry x="340" y="480" width="400" height="400" as="geometry" />
        </mxCell>
        <mxCell id="r0Ud5odVpVDxRnCUqQcT-7" value="" style="rounded=0;whiteSpace=wrap;html=1;" vertex="1" parent="1">
          <mxGeometry x="30" y="40" width="380" height="40" as="geometry" />
        </mxCell>
        <mxCell id="r0Ud5odVpVDxRnCUqQcT-8" value="" style="rounded=0;whiteSpace=wrap;html=1;" vertex="1" parent="1">
          <mxGeometry x="30" y="380" width="380" height="40" as="geometry" />
        </mxCell>
        <mxCell id="r0Ud5odVpVDxRnCUqQcT-9" value="" style="rounded=0;whiteSpace=wrap;html=1;" vertex="1" parent="1">
          <mxGeometry x="610" y="40" width="380" height="40" as="geometry" />
        </mxCell>
        <mxCell id="r0Ud5odVpVDxRnCUqQcT-10" value="" style="rounded=0;whiteSpace=wrap;html=1;" vertex="1" parent="1">
          <mxGeometry x="610" y="380" width="380" height="40" as="geometry" />
        </mxCell>
        <mxCell id="r0Ud5odVpVDxRnCUqQcT-11" value="" style="rounded=0;whiteSpace=wrap;html=1;" vertex="1" parent="1">
          <mxGeometry x="350" y="490" width="380" height="40" as="geometry" />
        </mxCell>
        <mxCell id="r0Ud5odVpVDxRnCUqQcT-12" value="" style="rounded=0;whiteSpace=wrap;html=1;" vertex="1" parent="1">
          <mxGeometry x="350" y="830" width="380" height="40" as="geometry" />
        </mxCell>
        <mxCell id="r0Ud5odVpVDxRnCUqQcT-13" value="" style="rounded=0;whiteSpace=wrap;html=1;direction=south;" vertex="1" parent="1">
          <mxGeometry x="30" y="100" width="80" height="260" as="geometry" />
        </mxCell>
        <mxCell id="r0Ud5odVpVDxRnCUqQcT-14" value="" style="rounded=0;whiteSpace=wrap;html=1;direction=south;" vertex="1" parent="1">
          <mxGeometry x="610" y="100" width="80" height="260" as="geometry" />
        </mxCell>
        <mxCell id="r0Ud5odVpVDxRnCUqQcT-15" value="" style="rounded=0;whiteSpace=wrap;html=1;direction=south;" vertex="1" parent="1">
          <mxGeometry x="650" y="550" width="80" height="260" as="geometry" />
        </mxCell>
        <mxCell id="r0Ud5odVpVDxRnCUqQcT-16" value="" style="rounded=0;whiteSpace=wrap;html=1;" vertex="1" parent="1">
          <mxGeometry x="350" y="550" width="290" height="260" as="geometry" />
        </mxCell>
        <mxCell id="r0Ud5odVpVDxRnCUqQcT-17" value="" style="rounded=0;whiteSpace=wrap;html=1;" vertex="1" parent="1">
          <mxGeometry x="120" y="100" width="280" height="20" as="geometry" />
        </mxCell>
        <mxCell id="r0Ud5odVpVDxRnCUqQcT-18" value="" style="whiteSpace=wrap;html=1;aspect=fixed;" vertex="1" parent="1">
          <mxGeometry x="130" y="130" width="70" height="70" as="geometry" />
        </mxCell>
        <mxCell id="r0Ud5odVpVDxRnCUqQcT-19" value="" style="whiteSpace=wrap;html=1;aspect=fixed;" vertex="1" parent="1">
          <mxGeometry x="225" y="130" width="70" height="70" as="geometry" />
        </mxCell>
        <mxCell id="r0Ud5odVpVDxRnCUqQcT-20" value="" style="whiteSpace=wrap;html=1;aspect=fixed;" vertex="1" parent="1">
          <mxGeometry x="320" y="130" width="70" height="70" as="geometry" />
        </mxCell>
        <mxCell id="r0Ud5odVpVDxRnCUqQcT-21" value="" style="whiteSpace=wrap;html=1;aspect=fixed;" vertex="1" parent="1">
          <mxGeometry x="130" y="230" width="70" height="70" as="geometry" />
        </mxCell>
        <mxCell id="r0Ud5odVpVDxRnCUqQcT-22" value="" style="whiteSpace=wrap;html=1;aspect=fixed;" vertex="1" parent="1">
          <mxGeometry x="225" y="230" width="70" height="70" as="geometry" />
        </mxCell>
        <mxCell id="r0Ud5odVpVDxRnCUqQcT-23" value="" style="whiteSpace=wrap;html=1;aspect=fixed;" vertex="1" parent="1">
          <mxGeometry x="320" y="230" width="70" height="70" as="geometry" />
        </mxCell>
        <mxCell id="r0Ud5odVpVDxRnCUqQcT-25" value="" style="endArrow=none;html=1;rounded=0;" edge="1" parent="1">
          <mxGeometry width="50" height="50" relative="1" as="geometry">
            <mxPoint x="130" y="330" as="sourcePoint" />
            <mxPoint x="290" y="330" as="targetPoint" />
            <Array as="points">
              <mxPoint x="170" y="330" />
              <mxPoint x="390" y="330" />
            </Array>
          </mxGeometry>
        </mxCell>
        <mxCell id="r0Ud5odVpVDxRnCUqQcT-26" value="" style="whiteSpace=wrap;html=1;aspect=fixed;" vertex="1" parent="1">
          <mxGeometry x="700" y="100" width="100" height="100" as="geometry" />
        </mxCell>
        <mxCell id="r0Ud5odVpVDxRnCUqQcT-27" value="" style="rounded=0;whiteSpace=wrap;html=1;" vertex="1" parent="1">
          <mxGeometry x="810" y="100" width="180" height="100" as="geometry" />
        </mxCell>
        <mxCell id="r0Ud5odVpVDxRnCUqQcT-28" value="" style="rounded=0;whiteSpace=wrap;html=1;" vertex="1" parent="1">
          <mxGeometry x="700" y="220" width="290" height="140" as="geometry" />
        </mxCell>
        <mxCell id="r0Ud5odVpVDxRnCUqQcT-33" value="" style="endArrow=classic;html=1;rounded=0;entryX=0.44;entryY=-0.004;entryDx=0;entryDy=0;entryPerimeter=0;" edge="1" parent="1" target="r0Ud5odVpVDxRnCUqQcT-3">
          <mxGeometry width="50" height="50" relative="1" as="geometry">
            <mxPoint x="390" y="300.00272727272727" as="sourcePoint" />
            <mxPoint x="510" y="470" as="targetPoint" />
          </mxGeometry>
        </mxCell>
        <mxCell id="r0Ud5odVpVDxRnCUqQcT-34" value="" style="endArrow=classic;html=1;rounded=0;entryX=-0.012;entryY=0.051;entryDx=0;entryDy=0;entryPerimeter=0;exitX=1.005;exitY=0.051;exitDx=0;exitDy=0;exitPerimeter=0;" edge="1" parent="1" source="r0Ud5odVpVDxRnCUqQcT-1">
          <mxGeometry width="50" height="50" relative="1" as="geometry">
            <mxPoint x="425" y="50" as="sourcePoint" />
            <mxPoint x="600.2" y="50.39999999999998" as="targetPoint" />
          </mxGeometry>
        </mxCell>
        <mxCell id="r0Ud5odVpVDxRnCUqQcT-37" value="" style="endArrow=classic;html=1;rounded=0;entryX=0.805;entryY=-0.002;entryDx=0;entryDy=0;entryPerimeter=0;" edge="1" parent="1" target="r0Ud5odVpVDxRnCUqQcT-3">
          <mxGeometry width="50" height="50" relative="1" as="geometry">
            <mxPoint x="820" y="360" as="sourcePoint" />
            <mxPoint x="660" y="440" as="targetPoint" />
          </mxGeometry>
        </mxCell>
        <mxCell id="r0Ud5odVpVDxRnCUqQcT-38" value="" style="endArrow=classic;html=1;rounded=0;entryX=0.66;entryY=1.008;entryDx=0;entryDy=0;entryPerimeter=0;" edge="1" parent="1" target="r0Ud5odVpVDxRnCUqQcT-1">
          <mxGeometry width="50" height="50" relative="1" as="geometry">
            <mxPoint x="370" y="490" as="sourcePoint" />
            <mxPoint x="310" y="450" as="targetPoint" />
          </mxGeometry>
        </mxCell>
      </root>
    </mxGraphModel>
  </diagram>
</mxfile>
